HIERARCHY
ROOT Hips
{
	OFFSET 0.00000 0.00000 0.00000
	CHANNELS 6 Xposition Yposition Zposition Zrotation Yrotation Xrotation 
	JOINT LHipJoint
	{
		OFFSET 0 0 0
		CHANNELS 3 Zrotation Yrotation Xrotation
		JOINT LeftUpLeg
		{
			OFFSET 1.57093 -1.69714 0.87455
			CHANNELS 3 Zrotation Yrotation Xrotation
			JOINT LeftLeg
			{
				OFFSET 2.48056 -6.81529 0.00000
				CHANNELS 3 Zrotation Yrotation Xrotation
				JOINT LeftFoot
				{
					OFFSET 2.62558 -7.21374 0.00000
					CHANNELS 3 Zrotation Yrotation Xrotation
					JOINT LeftToeBase
					{
						OFFSET 0.17911 -0.49210 2.16707
						CHANNELS 3 Zrotation Yrotation Xrotation
						End Site
						{
							OFFSET 0.00000 -0.00000 1.11848
						}
					}
				}
			}
		}
	}
	JOINT RHipJoint
	{
		OFFSET 0 0 0
		CHANNELS 3 Zrotation Yrotation Xrotation
		JOINT RightUpLeg
		{
			OFFSET -1.69739 -1.69715 0.87455
			CHANNELS 3 Zrotation Yrotation Xrotation
			JOINT RightLeg
			{
				OFFSET -2.33658 -6.41972 0.00000
				CHANNELS 3 Zrotation Yrotation Xrotation
				JOINT RightFoot
				{
					OFFSET -2.60856 -7.16696 0.00000
					CHANNELS 3 Zrotation Yrotation Xrotation
					JOINT RightToeBase
					{
						OFFSET -0.20854 -0.57296 2.11053
						CHANNELS 3 Zrotation Yrotation Xrotation
						End Site
						{
							OFFSET -0.00000 -0.00000 1.09848
						}
					}
				}
			}
		}
	}
	JOINT LowerBack
	{
		OFFSET 0 0 0
		CHANNELS 3 Zrotation Yrotation Xrotation
		JOINT Spine
		{
			OFFSET 0.02563 2.15732 -0.03270
			CHANNELS 3 Zrotation Yrotation Xrotation
			JOINT Spine1
			{
				OFFSET 0.00281 2.14662 0.09285
				CHANNELS 3 Zrotation Yrotation Xrotation
				JOINT Neck
				{
					OFFSET 0 0 0
					CHANNELS 3 Zrotation Yrotation Xrotation
					JOINT Neck1
					{
						OFFSET -0.04440 1.68397 0.17601
						CHANNELS 3 Zrotation Yrotation Xrotation
						JOINT Head
						{
							OFFSET 0.06040 1.66995 -0.35615
							CHANNELS 3 Zrotation Yrotation Xrotation
							End Site
							{
								OFFSET 0.02405 1.72189 -0.14044
							}
						}
					}
				}
				JOINT LeftShoulder
				{
					OFFSET 0 0 0
					CHANNELS 3 Zrotation Yrotation Xrotation
					JOINT LeftArm
					{
						OFFSET 2.98955 1.90907 -0.21660
						CHANNELS 3 Zrotation Yrotation Xrotation
						JOINT LeftForeArm
						{
							OFFSET 4.91377 -0.00000 0.00000
							CHANNELS 3 Zrotation Yrotation Xrotation
							JOINT LeftHand
							{
								OFFSET 3.00291 -0.00000 -0.00000
								CHANNELS 3 Zrotation Yrotation Xrotation
								JOINT LeftFingerBase
								{
									OFFSET 0 0 0
									CHANNELS 3 Zrotation Yrotation Xrotation
									JOINT LeftHandIndex1
									{
										OFFSET 0.45092 -0.00000 -0.00000
										CHANNELS 3 Zrotation Yrotation Xrotation
										End Site
										{
											OFFSET 0.36355 -0.00000 -0.00000
										}
									}
								}
								JOINT LThumb
								{
									OFFSET 0 0 0
									CHANNELS 3 Zrotation Yrotation Xrotation
									End Site
									{
										OFFSET 0.36910 -0.00000 0.36910
									}
								}
							}
						}
					}
				}
				JOINT RightShoulder
				{
					OFFSET 0 0 0
					CHANNELS 3 Zrotation Yrotation Xrotation
					JOINT RightArm
					{
						OFFSET -2.80452 1.90886 -0.21152
						CHANNELS 3 Zrotation Yrotation Xrotation
						JOINT RightForeArm
						{
							OFFSET -4.86725 -0.00000 0.00000
							CHANNELS 3 Zrotation Yrotation Xrotation
							JOINT RightHand
							{
								OFFSET -3.17144 -0.00000 -0.00000
								CHANNELS 3 Zrotation Yrotation Xrotation
								JOINT RightFingerBase
								{
									OFFSET 0 0 0
									CHANNELS 3 Zrotation Yrotation Xrotation
									JOINT RightHandIndex1
									{
										OFFSET -0.41937 -0.00000 -0.00000
										CHANNELS 3 Zrotation Yrotation Xrotation
										End Site
										{
											OFFSET -0.33810 -0.00000 -0.00000
										}
									}
								}
								JOINT RThumb
								{
									OFFSET 0 0 0
									CHANNELS 3 Zrotation Yrotation Xrotation
									End Site
									{
										OFFSET -0.34327 -0.00000 0.34327
									}
								}
							}
						}
					}
				}
			}
		}
	}
}
MOTION
Frames: 8
Frame Time: 0.0186916
0.00 0.00 0.00 0 0 0 0 0 0 -21 0 0 0 0 0 0 0 0 0 0 0 0 0 0 21 0 0 0 0 0 0 0 0 0 0 0 0 0 0 0 0 0 0 0 0 0 0 -16 0 0 21 0 0 11 0 0 0 -8 0 0 0 0 0 0 0 0 0 0 0 0 0 0 0 0 0 0 0 0 8 0 0 0 0 0 0 0 0 0 0 0 0 0 0 0 0 0
0.00 0.00 0.00 3.4989 1.1884 93.4916 0.0000 0.0000 0.0000 -17.9457 10.3384 -56.6555 35.2478 13.0992 140.2589 0.1854 3.1806 -9.9476 2.9331 10.5859 30.8958 0.0000 0.0000 0.0000 13.1768 -10.9195 -58.5560 -33.8055 -14.6142 134.2427 -0.1195 3.6656 8.9224 -0.2081 -2.9368 8.1029 -7.2955 2.8821 -2.7828 2.8640 4.0646 -2.7857 7.1054 2.2528 -2.0574 -1.2554 -21.6719 -9.2911 0.9916 -28.9321 6.4118 -1.3652 -14.2826 4.0072 0.0000 -0.0000 0.0000 -99.5035 -81.1495 81.9904 86.8007 -59.9613 -57.2297 -0.0000 0.0000 -38.2342 43.5645 -6.5685 -6.2092 -7.1250 0.0000 -0.0000 12.0964 21.0305 -7.1068 0.0000 -0.0000 0.0000 4.8110 64.2013 2.3310 -87.9910 59.9847 -58.2603 0.0000 -0.0000 -42.5792 -53.1308 -2.0019 2.6668 7.1250 -0.0000 -0.0000 -21.2511 -32.7225 -6.8017
0.00 0.00 0.00 3.6039 1.2164 93.9242 0.0000 0.0000 0.0000 -18.1789 9.2960 -57.1739 35.3026 13.0347 140.5015 0.1563 3.7154 -9.7811 3.0139 10.7175 31.3331 0.0000 0.0000 0.0000 13.4648 -10.9548 -59.1766 -33.8705 -14.5527 134.5006 -0.1201 3.5713 8.8515 -0.2470 -3.1978 8.8299 -6.9731 2.1646 -2.7953 2.4621 3.0781 -2.8345 6.5052 1.7329 -1.8806 -0.5053 -24.4220 -8.0786 2.9938 -32.8330 4.3030 -0.8338 -16.2459 3.3059 -0.0000 -0.0000 0.0000 -76.7837 -79.8000 61.4711 106.7368 -58.9146 -74.4417 -0.0000 0.0000 -38.7346 43.9926 -7.1919 -6.8917 -7.1250 0.0000 -0.0000 12.2747 20.1357 -7.4703 -0.0000 -0.0000 0.0000 7.5737 64.2832 5.6922 -106.5080 58.9448 -74.2457 0.0000 -0.0000 -40.2009 -54.2653 0.6451 -0.8965 7.1250 -0.0000 -0.0000 -21.1810 -28.5393 -9.0672
0.00 0.00 0.00 3.3955 1.1051 93.8835 0.0000 0.0000 0.0000 -18.5239 8.8629 -57.0061 35.2932 13.0458 140.4600 0.1389 4.0130 -9.6731 3.0672 10.8031 31.6186 0.0000 0.0000 0.0000 13.4324 -10.5652 -59.0159 -33.8576 -14.5649 134.4494 -0.1188 3.7566 8.9909 -0.2366 -3.1308 8.6430 -6.8464 1.9680 -2.5748 2.2682 2.7909 -2.8021 6.2212 1.5807 -1.9051 3.0326 -24.8563 -13.8182 -3.4150 -33.5802 10.9172 -3.6160 -16.5592 4.3366 0.0000 -0.0000 0.0000 -62.8528 -77.7405 51.1516 125.0808 -54.7966 -89.8500 -0.0000 0.0000 -36.0820 45.7586 -7.4501 -7.5838 -7.1250 0.0000 -0.0000 13.4314 19.5054 -8.4083 0.0000 -0.0000 0.0000 6.7141 62.5972 7.3168 -123.0796 55.4319 -88.2084 0.0000 -0.0000 -36.7685 -55.1756 0.4574 -0.6574 7.1250 -0.0000 -0.0000 -21.9094 -28.7935 -9.2813
0.00 0.00 0.00 3.2733 1.1222 93.5468 0.0000 0.0000 0.0000 -18.9229 8.3491 -56.5305 35.2478 13.0992 140.2589 0.1017 4.3673 -9.1780 3.1413 10.9203 32.0116 0.0000 0.0000 0.0000 13.4746 -9.4496 -58.3542 -33.7873 -14.6313 134.1705 -0.1309 4.4097 9.8708 -0.2402 -3.1543 8.7086 -6.2291 1.6592 -2.2020 2.3760 2.3414 -2.7614 5.9731 1.3419 -1.9759 3.4133 -24.5883 -13.8258 -1.9067 -33.4599 9.6182 -3.1973 -16.4703 4.1409 0.0000 0.0000 0.0000 -50.0201 -76.6721 45.6489 139.7814 -48.1989 -101.3980 -0.0000 0.0000 -29.7457 48.8411 -10.1073 -11.3515 -7.1250 0.0000 -0.0000 14.8723 15.1564 -10.8438 0.0000 0.0000 0.0000 3.3562 59.7650 9.6992 -139.6631 48.2683 -101.3097 0.0000 -0.0000 -30.3826 -56.7271 0.2240 -0.3414 7.1250 -0.0000 -0.0000 -23.1236 -29.1019 -9.6943
0.00 0.00 0.00 3.2333 1.1093 90.6290 0.0000 0.0000 0.0000 -19.5954 8.7380 -57.0734 35.0978 13.2728 139.6017 0.0086 2.8464 -4.5309 2.5669 9.9585 28.8424 0.0000 0.0000 0.0000 12.5043 -7.8443 -59.0206 -33.8841 -14.5398 134.5548 -0.3580 2.2884 12.3751 -0.8075 -5.7348 16.0168 -5.2527 1.7199 0.6868 2.4841 2.2686 -1.5194 5.4604 1.2532 -2.2622 1.5212 -19.4069 -12.1186 2.5831 -26.4930 6.2346 -1.3633 -12.9553 4.3071 0.0000 0.0000 0.0000 -20.8403 -77.4689 26.0704 145.0321 -44.7892 -105.2093 -0.0000 0.0000 -21.4039 56.7552 -9.8584 -14.6384 -7.1250 0.0000 -0.0000 19.8213 13.0913 -15.8144 0.0000 0.0000 0.0000 -4.7917 58.0646 9.2367 -146.0418 44.0537 -105.9160 0.0000 -0.0000 -22.2952 -59.4781 -0.1486 0.2521 7.1250 -0.0000 -0.0000 -25.2702 -29.6240 -10.4200
0.00 0.00 0.00 3.6452 1.1144 90.8761 0.0000 0.0000 0.0000 -17.2699 10.1550 -56.3809 35.2019 13.1528 140.0568 0.0249 0.9211 -3.4731 2.3249 9.5124 27.4118 0.0000 0.0000 0.0000 9.8828 -10.5628 -57.3737 -34.0686 -14.3615 135.2943 -0.1890 6.3813 12.9262 -0.4285 -4.2011 11.6430 -5.7821 2.6843 -0.4344 2.8344 3.6298 -1.7526 6.1235 1.9578 -2.1167 3.1131 -13.9266 -14.6623 0.0036 -19.3279 10.7379 -2.0830 -9.2841 5.2906 -0.0000 -0.0000 0.0000 -3.1408 -81.9424 -1.5482 138.8085 -48.7602 -100.6695 -0.0000 0.0000 -25.1684 54.8414 -5.6744 -7.9909 -7.1250 0.0000 -0.0000 19.9214 20.4021 -12.4938 -0.0000 -0.0000 0.0000 -12.2714 55.7314 -6.0968 -139.5546 48.3316 -101.2287 0.0000 -0.0000 -26.2734 -55.9504 -4.0999 6.0394 7.1250 -0.0000 -0.0000 -24.3650 -36.2117 -5.6915
0.00 0.00 0.00 3.9501 1.0388 91.1872 0.0000 0.0000 0.0000 -13.5555 10.7991 -55.3014 35.2661 13.0777 140.3401 0.0104 -2.1528 -2.2085 1.8928 8.6391 24.6728 0.0000 0.0000 0.0000 5.9452 -12.6028 -55.6880 -34.2087 -14.2230 135.8617 0.0492 10.1635 13.6551 -0.2446 -3.1826 8.7876 -5.9839 3.1939 -1.2297 2.8489 4.3636 -1.8284 6.2745 2.3284 -1.8763 4.2730 -11.7752 -15.9757 -1.3609 -16.5915 12.5072 -2.6012 -7.9171 5.8992 -0.0000 0.0000 0.0000 29.8733 -82.7585 -40.1709 131.9011 -52.1994 -95.3362 -0.0000 0.0000 -27.0688 53.8204 -3.3706 -4.5963 -7.1250 0.0000 -0.0000 19.9655 24.2493 -10.6374 -0.0000 0.0000 0.0000 -19.1726 53.6897 -17.2471 -132.4584 51.9546 -95.7758 0.0000 -0.0000 -30.2978 -53.9033 -5.8388 7.9428 7.1250 -0.0000 -0.0000 -23.3591 -38.7228 -3.8645
